<?xml version="1.0" standalone="no"?><!DOCTYPE svg PUBLIC "-//W3C//DTD SVG 1.1//EN" "http://www.w3.org/Graphics/SVG/1.1/DTD/svg11.dtd"><svg t="1548847730452" class="icon" style="" viewBox="0 0 1024 1024" version="1.1" xmlns="http://www.w3.org/2000/svg" p-id="1711" xmlns:xlink="http://www.w3.org/1999/xlink" width="16" height="16"><defs><style type="text/css"></style></defs><path d="M480.00000031 960.00000031A415.99999969 415.99999969 0 0 1 341.43999969 151.68000031c11.20000031-3.84 22.72000031-7.68 34.56-10.56a31.99999969 31.99999969 0 0 1 16.00000031 62.07999938c-9.91999969 2.56000031-19.84000031 5.44000031-29.44000031 8.96000062a352.00000031 352.00000031 0 1 0 449.60000062 447.99999938c3.19999969-9.6 6.07999969-19.51999969 8.64-29.43999938a31.99999969 31.99999969 0 1 1 62.07999938 15.99999938c-2.88 11.83999969-6.72 23.35999969-10.56 34.56A415.99999969 415.99999969 0 0 1 480.00000031 960.00000031z" p-id="1712"></path><path d="M927.99999969 543.99999969H512a31.99999969 31.99999969 0 0 1-31.99999969-31.99999969V96.00000031a31.99999969 31.99999969 0 0 1 31.99999969-32.00000062 448.00000031 448.00000031 0 0 1 448.00000031 448.00000031 31.99999969 31.99999969 0 0 1-32.00000062 31.99999969z m-384-63.99999938h352.00000031A384 384 0 0 0 543.99999969 128z" p-id="1713"></path></svg>