<?xml version="1.0" standalone="no"?><!DOCTYPE svg PUBLIC "-//W3C//DTD SVG 1.1//EN" "http://www.w3.org/Graphics/SVG/1.1/DTD/svg11.dtd"><svg t="1548847716483" class="icon" style="" viewBox="0 0 1024 1024" version="1.1" xmlns="http://www.w3.org/2000/svg" p-id="1591" xmlns:xlink="http://www.w3.org/1999/xlink" width="16" height="16"><defs><style type="text/css"></style></defs><path d="M765.22666667 367.14666667c0-160.21333333-128.10666667-288.32-288.32-288.32S188.58666667 207.04 188.58666667 367.14666667c0 108.90666667 57.70666667 201.81333333 147.41333333 249.92-121.70666667 48.10666667-214.61333333 153.81333333-240.32 288.32-3.2 16 6.4 35.2 25.6 38.4h6.4c16 0 28.8-9.6 32-25.6 28.8-150.61333333 160.21333333-259.52 313.92-262.72h6.4c153.81333333 0.10666667 285.22666667-131.30666667 285.22666667-288.32z m-512.64 0C252.58666667 242.24 351.89333333 142.93333333 476.8 142.93333333s224.21333333 99.30666667 224.21333333 224.21333334c0 121.70666667-99.30666667 221.01333333-221.01333333 224.32h-9.6c-121.70666667-6.4-217.81333333-105.70666667-217.81333333-224.32z m445.33333333 288.42666666c0 19.2 12.8 32 32 32h160.21333333c19.2 0 32-12.8 32-32s-12.8-32-32-32H730.02666667c-16.10666667-0.10666667-32.10666667 12.69333333-32.10666667 32z m192.21333333 92.90666667H633.81333333c-19.2 0-32 12.8-32 32s12.8 32 32 32h256.32c19.2 0 32-12.8 32-32 0.10666667-19.2-12.69333333-32-32-32z m0 128.10666667H637.12c-19.2 0-32 12.8-32 32s12.8 32 32 32h253.12c19.2 0 32-12.8 32-32s-16.10666667-32-32.10666667-32z m0 0" p-id="1592"></path></svg>